<svg xmlns="http://www.w3.org/2000/svg" xmlns:xlink="http://www.w3.org/1999/xlink" width="500" zoomAndPan="magnify" viewBox="0 0 375 374.999991" height="500" preserveAspectRatio="xMidYMid meet" version="1.0"><defs><g/></defs><g fill="#000000" fill-opacity="1"><g transform="translate(61.300782, 241.314374)"><g><path d="M 91.78125 -151.515625 C 91.78125 -151.515625 91.453125 -149.132812 90.796875 -144.375 C 90.148438 -139.613281 89.828125 -134.054688 89.828125 -127.703125 L 89.828125 -47.40625 C 89.828125 -42.5 89.644531 -37.734375 89.28125 -33.109375 C 88.925781 -28.492188 87.738281 -24.164062 85.71875 -20.125 C 83.695312 -16.082031 80.304688 -12.332031 75.546875 -8.875 C 71.210938 -5.695312 66.265625 -3.421875 60.703125 -2.046875 C 55.148438 -0.679688 49.273438 0 43.078125 0 C 38.597656 0 33.941406 -0.429688 29.109375 -1.296875 C 24.273438 -2.160156 19.765625 -3.242188 15.578125 -4.546875 C 11.398438 -5.847656 7.46875 -7.363281 3.78125 -9.09375 C 0.101562 -10.820312 -2.957031 -12.695312 -5.40625 -14.71875 L 0.21875 -21.640625 C 3.820312 -18.609375 8.003906 -15.648438 12.765625 -12.765625 C 17.523438 -9.878906 22.539062 -7.535156 27.8125 -5.734375 C 33.082031 -3.929688 38.097656 -2.957031 42.859375 -2.8125 C 49.785156 -2.8125 54.976562 -4.179688 58.4375 -6.921875 C 61.90625 -9.671875 64.285156 -13.242188 65.578125 -17.640625 C 66.878906 -22.046875 67.53125 -26.84375 67.53125 -32.03125 C 67.53125 -37.226562 67.53125 -42.351562 67.53125 -47.40625 L 67.53125 -148.484375 L 32.90625 -148.484375 C 29.726562 -148.484375 26.265625 -148.191406 22.515625 -147.609375 C 18.765625 -147.035156 15.191406 -146.390625 11.796875 -145.671875 C 8.398438 -144.953125 5.617188 -144.300781 3.453125 -143.71875 C 1.296875 -143.144531 0.21875 -142.859375 0.21875 -142.859375 L 0.21875 -151.515625 Z M 91.78125 -151.515625 "/></g></g></g><g fill="#000000" fill-opacity="1"><g transform="translate(172.343266, 241.314374)"><g><path d="M 24.25 -23.8125 C 24.25 -17.457031 24.609375 -11.898438 25.328125 -7.140625 C 26.046875 -2.378906 26.40625 0 26.40625 0 L 0 0 C 0 0 0.320312 -2.378906 0.96875 -7.140625 C 1.625 -11.898438 1.953125 -17.457031 1.953125 -23.8125 L 1.953125 -127.703125 C 1.953125 -134.054688 1.625 -139.613281 0.96875 -144.375 C 0.320312 -149.132812 0 -151.515625 0 -151.515625 L 76.84375 -151.515625 C 84.78125 -151.515625 92.210938 -150.109375 99.140625 -147.296875 C 106.066406 -144.484375 111.65625 -140.257812 115.90625 -134.625 C 120.164062 -129 122.296875 -121.859375 122.296875 -113.203125 C 122.296875 -105.117188 120.632812 -98.625 117.3125 -93.71875 C 114 -88.8125 109.597656 -84.953125 104.109375 -82.140625 C 98.628906 -79.328125 92.570312 -77.054688 85.9375 -75.328125 C 80.300781 -73.878906 74.238281 -72.289062 67.75 -70.5625 C 61.257812 -68.832031 55.378906 -66.488281 50.109375 -63.53125 C 44.835938 -60.570312 41.050781 -56.28125 38.75 -50.65625 C 39.03125 -55.269531 41.007812 -59.234375 44.6875 -62.546875 C 48.375 -65.867188 52.597656 -68.757812 57.359375 -71.21875 C 62.554688 -73.957031 67.570312 -76.335938 72.40625 -78.359375 C 77.238281 -80.378906 81.640625 -82.722656 85.609375 -85.390625 C 89.578125 -88.054688 92.710938 -91.550781 95.015625 -95.875 C 97.328125 -100.207031 98.484375 -105.984375 98.484375 -113.203125 C 98.484375 -122.722656 96.609375 -130.007812 92.859375 -135.0625 C 89.109375 -140.113281 84.019531 -143.613281 77.59375 -145.5625 C 71.175781 -147.507812 63.851562 -148.484375 55.625 -148.484375 L 24.25 -148.484375 Z M 24.25 -23.8125 "/></g></g></g></svg>